<svg width="2000" height="1592" viewBox="0 0 2000 1592" fill="none" xmlns="http://www.w3.org/2000/svg">
<path d="M1831.28 795.982C1831.61 901.075 1810.53 1005.2 1769.24 1102.41C1727.95 1199.62 1667.26 1288 1590.64 1362.51C1582.2 1370.73 1573.56 1378.76 1564.74 1386.6C1554.11 1396.09 1543.21 1405.28 1532.03 1414.19C1529.9 1415.9 1527.77 1417.59 1525.61 1419.26C1481.46 1453.87 1433.65 1483.86 1382.97 1508.74C1379.97 1510.21 1376.96 1511.67 1373.93 1513.11C1369.13 1515.4 1364.28 1517.63 1359.43 1519.82C1179.81 1600.67 975.537 1614.08 786.27 1557.44C454.903 1457.95 213.855 1154.68 213.855 795.982C213.855 356.367 575.928 0 1022.57 0C1469.21 0 1831.28 356.367 1831.28 795.982Z" fill="white"/>
<path d="M1434.12 745.312C1461.39 745.312 1483.5 723.958 1483.5 697.616C1483.5 671.275 1461.39 649.921 1434.12 649.921C1406.84 649.921 1384.73 671.275 1384.73 697.616C1384.73 723.958 1406.84 745.312 1434.12 745.312Z" fill="#2F2E41"/>
<path d="M1381.21 677.175C1381.21 665.411 1385.71 654.063 1393.85 645.312C1401.99 636.56 1413.19 631.022 1425.3 629.762C1418.4 629.034 1411.42 629.718 1404.82 631.769C1398.21 633.82 1392.13 637.192 1386.97 641.665C1381.8 646.139 1377.67 651.613 1374.84 657.731C1372.01 663.849 1370.55 670.475 1370.55 677.175C1370.55 683.875 1372.01 690.501 1374.84 696.619C1377.67 702.737 1381.8 708.211 1386.97 712.685C1392.13 717.158 1398.21 720.53 1404.82 722.581C1411.42 724.632 1418.4 725.316 1425.3 724.588C1413.19 723.328 1401.99 717.79 1393.85 709.038C1385.71 700.287 1381.21 688.939 1381.21 677.175V677.175Z" fill="#2F2E41"/>
<path d="M1384.73 697.609C1384.73 697.609 1377.06 731.678 1424.99 745.305L1384.73 697.609Z" fill="#036686"/>
<path d="M1454.54 1021.58C1546.1 1021.58 1620.32 949.893 1620.32 861.461C1620.32 773.029 1546.1 701.341 1454.54 701.341C1362.98 701.341 1288.76 773.029 1288.76 861.461C1288.76 949.893 1362.98 1021.58 1454.54 1021.58Z" fill="#2F2E41"/>
<path d="M1546.11 1403.18C1543.98 1404.89 1541.85 1406.58 1539.69 1408.24C1495.54 1442.8 1447.73 1472.74 1397.05 1497.58C1394.05 1499.05 1391.04 1500.51 1388.01 1501.95C1383.21 1504.23 1378.36 1506.46 1373.51 1508.64L1288.53 1481.29L1289.5 1461.63V1461.55L1293.2 1386.57L1294.46 1360.93L1546.11 1403.18Z" fill="#A0616A"/>
<path d="M1388.01 1501.95C1383.21 1504.23 1378.36 1506.46 1373.51 1508.64C1340.31 1523.63 1306.07 1536.37 1271.04 1546.76C1270.86 1546.26 1270.76 1545.74 1270.73 1545.22L1288.52 1461.23L1289.5 1461.63L1388.01 1501.95Z" fill="#2F2E41"/>
<path d="M1413.16 1031.34C1473.79 1031.34 1522.94 983.868 1522.94 925.306C1522.94 866.744 1473.79 819.27 1413.16 819.27C1352.52 819.27 1303.37 866.744 1303.37 925.306C1303.37 983.868 1352.52 1031.34 1413.16 1031.34Z" fill="#A0616A"/>
<path d="M1502.17 931.036C1502.17 931.036 1519.98 1017.01 1552.61 1037.07L1371.62 1243.41L1303.37 1180.36L1353.81 1094.39C1353.81 1094.39 1410.19 1062.86 1392.39 1019.88L1502.17 931.036Z" fill="#A0616A"/>
<path d="M1716.97 1215.79C1684.8 1264.87 1647.16 1310.41 1604.73 1351.58C1602.9 1313.14 1598.95 1281.45 1591.2 1272.08C1591.18 1272.08 1591.16 1272.07 1591.15 1272.05L1496.23 1243.41C1496.23 1243.41 1517 1054.26 1567.45 1045.68C1567.45 1045.68 1574.77 1047.12 1586.14 1050.44C1622.8 1061.11 1701.52 1091.16 1712.84 1154.57C1716.06 1174.82 1717.44 1195.3 1716.97 1215.79V1215.79Z" fill="#A0616A"/>
<path d="M1353.81 1094.39C1353.81 1094.39 1264.8 1091.53 1208.42 1160.31C1152.04 1229.09 1015.55 1280.67 1015.55 1280.67L674.323 1409.63C674.323 1409.63 612.012 1303.6 573.438 1340.85C534.864 1378.11 644.651 1472.68 695.093 1461.22C745.536 1449.76 1051.16 1360.92 1051.16 1360.92L1294.47 1254.88L1353.81 1094.39Z" fill="#A0616A"/>
<path d="M1591.2 1272.08L1578.82 1375.63C1568.19 1385.1 1557.29 1394.28 1546.11 1403.18C1543.98 1404.89 1541.85 1406.58 1539.69 1408.24C1454.02 1382.87 1319.77 1385.7 1293.2 1386.56C1290.17 1386.64 1288.52 1386.71 1288.52 1386.71L1285.57 1326.53C1257.1 1317.38 1247.75 1297.37 1247.5 1275.35C1247.06 1235.43 1276.66 1188.96 1276.66 1188.96C1281.98 1183.82 1321.7 1111.1 1329.91 1096.02C1330.86 1094.26 1331.4 1093.29 1331.4 1093.29L1367.01 1084.71C1367.01 1084.71 1366.91 1084.98 1366.7 1085.48C1363.52 1094.08 1335.84 1171.92 1383.49 1174.62C1430.37 1177.3 1532.35 1050.14 1546.39 1032.32C1547.45 1030.98 1548.01 1030.26 1548.01 1030.26L1586.6 1050.32C1586.45 1050.37 1586.29 1050.39 1586.14 1050.44C1562.57 1056.76 1540.75 1111.59 1540.75 1111.59C1479.21 1216.33 1588.45 1270.74 1591.14 1272.05C1591.16 1272.07 1591.18 1272.08 1591.2 1272.08Z" fill="#D0CDE1"/>
<path d="M1419.12 800.841C1360.68 800.841 1313.3 827.533 1313.3 860.46C1313.3 875.193 1322.83 888.658 1338.55 899.06L1358.92 884.804L1353.38 907.138C1355.68 908.167 1358.02 909.163 1360.47 910.083L1390.9 875.791V917.919C1400.24 919.363 1409.67 920.085 1419.12 920.079C1477.56 920.079 1524.94 893.387 1524.94 860.46C1524.94 827.533 1477.56 800.841 1419.12 800.841Z" fill="#2F2E41"/>
<path d="M1635.89 819.819C1663.16 819.819 1685.27 798.465 1685.27 772.123C1685.27 745.782 1663.16 724.428 1635.89 724.428C1608.61 724.428 1586.5 745.782 1586.5 772.123C1586.5 798.465 1608.61 819.819 1635.89 819.819Z" fill="#2F2E41"/>
<path d="M1582.98 751.689C1582.98 739.925 1587.48 728.577 1595.62 719.825C1603.76 711.073 1614.96 705.535 1627.07 704.275C1625.31 704.091 1623.55 703.997 1621.78 703.993C1615.06 703.984 1608.42 705.297 1602.25 707.852C1596.08 710.408 1590.51 714.152 1585.89 718.855C1581.27 723.559 1577.69 729.123 1575.37 735.209C1573.05 741.294 1572.04 747.772 1572.4 754.248C1572.76 760.723 1574.48 767.059 1577.46 772.87C1580.44 778.68 1584.62 783.842 1589.74 788.04C1594.85 792.238 1600.8 795.385 1607.22 797.286C1613.64 799.188 1620.39 799.806 1627.07 799.102C1614.96 797.842 1603.76 792.304 1595.62 783.552C1587.48 774.8 1582.98 763.452 1582.98 751.689V751.689Z" fill="#2F2E41"/>
<path d="M1586.5 772.125C1586.5 772.125 1578.83 806.193 1626.76 819.82L1586.5 772.125Z" fill="#036686"/>
<path d="M1527.39 935.342C1532.13 935.342 1535.97 927.002 1535.97 916.714C1535.97 906.426 1532.13 898.086 1527.39 898.086C1522.66 898.086 1518.82 906.426 1518.82 916.714C1518.82 927.002 1522.66 935.342 1527.39 935.342Z" fill="#A0616A"/>
<path d="M581.325 988.778L451.216 1019.22L450.792 1019.32L436.649 1031.69L432.578 1035.24L423.851 1033.72L408.402 1031.02L419.168 995.927L421.186 928.991L413.785 888.049L454.829 860.755C454.829 860.755 534.898 856.206 581.325 988.778Z" fill="#D0CDE1"/>
<path opacity="0.1" d="M451.216 1019.22C449.453 1022.86 453.147 1020.46 451.128 1024.2L432.288 1030.04L423.851 1033.72L408.402 1031.02L419.168 995.926L421.186 928.991L413.785 888.049L454.829 860.755C454.829 860.755 498.88 921.01 451.216 1019.22Z" fill="black"/>
<path d="M734.733 892.592C734.733 892.592 563.83 969.276 494.526 980.973C425.223 992.671 431.279 1059.61 431.279 1059.61L819.512 1001.12C819.512 1001.12 806.055 940.682 734.733 892.592Z" fill="#D0CDE1"/>
<path d="M405.04 879.601C405.04 879.601 434.645 949.136 401.676 1035.57L440.028 1052.46L454.831 1035.57L455.167 1033.94L414.46 1030.37C414.46 1030.37 448.102 943.287 420.515 882.85C420.516 882.85 414.46 869.853 405.04 879.601Z" fill="#036686"/>
<path d="M969.557 1394.94C818.166 1362.45 677.204 1429.71 677.204 1429.71L676.82 1429.38L620.685 1380.97L401.336 1035.24L454.827 1035.57C603.527 949.785 812.783 961.482 812.783 961.482C902.945 1060.26 969.557 1394.94 969.557 1394.94Z" fill="#15ABAB"/>
<path opacity="0.1" d="M676.82 1429.37L620.685 1380.96L401.336 1035.24L454.827 1035.56C454.827 1035.56 668.026 1307.52 676.82 1429.37Z" fill="black"/>
<path d="M701.461 1159.62C747.291 1146.05 777.199 1112.23 768.264 1084.09C759.328 1055.96 714.933 1044.15 669.103 1057.73C623.273 1071.31 593.365 1105.12 602.3 1133.26C611.235 1161.4 655.631 1173.2 701.461 1159.62Z" fill="white"/>
<path d="M1884.04 1457.87C1862.52 1534.71 1788.81 1582.29 1788.81 1582.29C1788.81 1582.29 1749.99 1505.3 1771.51 1428.47C1793.03 1351.63 1866.74 1304.05 1866.74 1304.05C1866.74 1304.05 1905.56 1381.04 1884.04 1457.87Z" fill="#036686"/>
<path d="M1688.26 1457.87C1709.78 1534.71 1783.5 1582.29 1783.5 1582.29C1783.5 1582.29 1822.32 1505.3 1800.8 1428.47C1779.28 1351.63 1705.56 1304.05 1705.56 1304.05C1705.56 1304.05 1666.74 1381.04 1688.26 1457.87Z" fill="#036686"/>
<path d="M1719.89 1441.36C1778.94 1496.88 1786.15 1582.23 1786.15 1582.23C1786.15 1582.23 1697.62 1577.56 1638.57 1522.04C1579.52 1466.52 1572.3 1381.17 1572.3 1381.17C1572.3 1381.17 1660.83 1385.84 1719.89 1441.36Z" fill="#3F3D56"/>
<path d="M1852.42 1441.36C1793.37 1496.88 1786.15 1582.23 1786.15 1582.23C1786.15 1582.23 1874.68 1577.56 1933.73 1522.04C1992.79 1466.52 2000 1381.17 2000 1381.17C2000 1381.17 1911.47 1385.84 1852.42 1441.36Z" fill="#3F3D56"/>
<path d="M311.735 1467.58C290.215 1544.41 216.502 1592 216.502 1592C216.502 1592 177.682 1515.01 199.202 1438.18C220.722 1361.34 294.435 1313.76 294.435 1313.76C294.435 1313.76 333.256 1390.74 311.735 1467.58Z" fill="#036686"/>
<path d="M115.96 1467.58C137.48 1544.41 211.193 1592 211.193 1592C211.193 1592 250.014 1515.01 228.493 1438.18C206.973 1361.34 133.26 1313.76 133.26 1313.76C133.26 1313.76 94.4393 1390.74 115.96 1467.58Z" fill="#036686"/>
<path d="M147.583 1451.07C206.635 1506.59 213.848 1591.94 213.848 1591.94C213.848 1591.94 125.318 1587.27 66.2653 1531.75C7.21275 1476.22 0 1390.88 0 1390.88C0 1390.88 88.5303 1395.54 147.583 1451.07Z" fill="#3F3D56"/>
<path d="M280.113 1451.07C221.06 1506.59 213.848 1591.94 213.848 1591.94C213.848 1591.94 302.378 1587.27 361.43 1531.75C420.483 1476.22 427.695 1390.88 427.695 1390.88C427.695 1390.88 339.165 1395.54 280.113 1451.07Z" fill="#3F3D56"/>
</svg>
